<svg width="40" height="40" viewBox="0 0 40 40" fill="none" xmlns="http://www.w3.org/2000/svg">
<g id="kkart-logo-header-light">
<g id="Group 125">
<path id="Vector" d="M11.6004 6.8C11.6004 4.70127 9.89903 2.99991 7.80022 2.99991C5.70142 2.99991 4 4.70127 4 6.8C4 8.89874 5.70142 10.6001 7.80022 10.6001C9.89903 10.6001 11.6004 8.89874 11.6004 6.8Z" fill="#FF0000" stroke="black" stroke-width="2"/>
<path id="Vector_2" d="M19.8001 10.6004C21.8988 10.6004 23.6002 8.89903 23.6002 6.80022C23.6002 4.70142 21.8988 3 19.8001 3C17.7014 3 16 4.70142 16 6.80022C16 8.89903 17.7014 10.6004 19.8001 10.6004Z" fill="#FFF000" stroke="black" stroke-width="2"/>
<path id="Vector_3" d="M35.6004 6.80009C35.6004 8.89883 33.899 10.6002 31.8002 10.6002C29.7014 10.6002 28 8.89883 28 6.80009C28 4.70136 29.7014 3 31.8002 3C33.899 3 35.6004 4.70136 35.6004 6.80009Z" fill="#00FFFF" stroke="black" stroke-width="2"/>
<path id="Rectangle 342" d="M31.25 12.75V36.25H28.75V12.75H31.25Z" fill="#05FF61" stroke="black" stroke-width="1.5"/>
<path id="Rectangle 336" d="M35.25 12.75V24.25H32.75V12.75H35.25Z" fill="#05FFD5" stroke="black" stroke-width="1.5"/>
<path id="Rectangle 331" d="M23 13.0005V25.1274C22.1097 24.5309 21.0394 24.2505 20 24.2505C18.9606 24.2505 17.8903 24.5309 17 25.1274V13.0005H23Z" fill="#FFE100" stroke="black" stroke-width="2"/>
<path id="Rectangle 335" d="M27.25 17.75V36.25H24.75V17.75H27.25Z" fill="#FF05F7" stroke="black" stroke-width="1.5"/>
<path id="Rectangle 339" d="M4.75 12.75V24.25H7.25V12.75H4.75Z" fill="#FF006F" stroke="black" stroke-width="1.5"/>
<path id="Rectangle 338" d="M8.75 12.75V36.25H11.25V12.75H8.75Z" fill="#FF0044" stroke="black" stroke-width="1.5"/>
<path id="Rectangle 337" d="M12.75 17.75V36.25H15.25V17.75H12.75Z" fill="#FF05F7" stroke="black" stroke-width="1.5"/>
</g>
</g>
</svg>
